<svg width="27" height="24" viewBox="0 0 27 24" fill="none" xmlns="http://www.w3.org/2000/svg">
<line y1="0.5" x2="20" y2="0.5" stroke="black"/>
<line y1="20.5" x2="11" y2="20.5" stroke="black"/>
<line x1="0.5" y1="1" x2="0.499999" y2="21" stroke="black"/>
<line x1="20.5" y1="2.18557e-08" x2="20.5" y2="10" stroke="black"/>
<path d="M21.918 18.041L21.1211 18.8086V21H20.0312V12H21.1211V17.5078L21.8301 16.7461L23.9102 14.6602H25.2285L22.6621 17.3027L25.6211 21H24.2441L21.918 18.041Z" fill="black"/>
<path d="M18.3691 17.9004C18.3691 18.3535 18.3145 18.7773 18.2051 19.1719C18.0957 19.5625 17.9355 19.9023 17.7246 20.1914C17.5137 20.4805 17.252 20.707 16.9395 20.8711C16.6309 21.0352 16.2773 21.1172 15.8789 21.1172C15.4922 21.1172 15.1504 21.0547 14.8535 20.9297C14.5605 20.8047 14.3086 20.625 14.0977 20.3906V23.4375H13.0137V14.6602H14.0039L14.0566 15.3516C14.2676 15.0898 14.5215 14.8906 14.8184 14.7539C15.1191 14.6133 15.4668 14.543 15.8613 14.543C16.2676 14.543 16.627 14.623 16.9395 14.7832C17.252 14.9434 17.5137 15.166 17.7246 15.4512C17.9355 15.7363 18.0957 16.0781 18.2051 16.4766C18.3145 16.8711 18.3691 17.3047 18.3691 17.7773V17.9004ZM17.2852 17.7773C17.2852 17.4688 17.25 17.1758 17.1797 16.8984C17.1133 16.6172 17.0078 16.3711 16.8633 16.1602C16.7227 15.9453 16.543 15.7754 16.3242 15.6504C16.1055 15.5254 15.8438 15.4629 15.5391 15.4629C15.1914 15.4629 14.8984 15.5449 14.6602 15.709C14.4258 15.8691 14.2383 16.0762 14.0977 16.3301V19.3828C14.2383 19.6328 14.4258 19.8379 14.6602 19.998C14.8945 20.1543 15.1914 20.2324 15.5508 20.2324C15.8516 20.2324 16.1113 20.1699 16.3301 20.0449C16.5488 19.916 16.7285 19.7441 16.8691 19.5293C17.0098 19.3145 17.1133 19.0664 17.1797 18.7852C17.25 18.5039 17.2852 18.209 17.2852 17.9004V17.7773Z" fill="black"/>
</svg>
