<svg width="184" height="240" viewBox="0 0 184 240" fill="none" xmlns="http://www.w3.org/2000/svg">
<path d="M44.6311 185.469C40.8009 179.877 55.1255 118.021 68.1592 74H99.074C99.074 74 138.193 199.263 126.979 174.658C115.765 150.053 48.4612 191.062 44.6311 185.469Z" fill="white" stroke="black" stroke-width="2"/>
<path d="M126 39.5C126 60.6744 107.065 78 83.5 78C59.9349 78 41 60.6744 41 39.5C41 18.3256 59.9349 1 83.5 1C107.065 1 126 18.3256 126 39.5Z" fill="white" stroke="black" stroke-width="2"/>
<ellipse cx="68.5" cy="53.5" rx="8.5" ry="7.5" fill="#FFEBEB"/>
<ellipse cx="101.5" cy="53.5" rx="8.5" ry="7.5" fill="#FFEBEB"/>
<ellipse cx="76.7045" cy="40.2364" rx="4.72542" ry="5.25046" fill="black"/>
<circle cx="76.967" cy="38.3988" r="1.31262" fill="white"/>
<circle cx="74.6044" cy="40.7615" r="1.05009" fill="white"/>
<path d="M74.3418 36.2986C73.2322 35.7367 72.7268 35.2012 71.9791 33.9359" stroke="black"/>
<path d="M72.7371 39.3268C71.5468 38.9661 70.956 38.5265 70 37.4103" stroke="black"/>
<circle r="5.5" transform="matrix(-1 0 0 1 92.5 39.5)" fill="black"/>
<ellipse rx="1.5" ry="1" transform="matrix(-1 0 0 1 91.5 38)" fill="white"/>
<ellipse rx="1" ry="1.5" transform="matrix(-1 0 0 1 94 40.5)" fill="white"/>
<path d="M95 35C96.4089 34.5244 97.0507 34.0711 98 33" stroke="black" stroke-width="0.96498"/>
<path d="M97 37.2453C98.1695 36.8973 98.7499 36.4731 99.6892 35.3959" stroke="black" stroke-width="0.96498"/>
<path d="M92.8104 9.5817C74.3105 25.9449 43.8746 83.2358 41.0715 37.8873C38.2683 -7.46116 118.839 -12.9993 124.235 32.4807C129.63 77.9606 104.861 24.6294 101.063 12.4441C98.3912 18.0413 96.414 19.9839 92.8104 23.2575C95.7573 18.8371 96.2439 16.5165 96.6194 12.4441C92.3211 19.0038 89.1179 21.9138 81.7008 25.8018C86.9901 20.5019 89.1689 16.6752 92.8104 9.5817Z" fill="black" stroke="black" stroke-width="2"/>
<path d="M61.8286 97.2284C61.8286 97.2284 33.3433 94.2525 25.3584 85.1342C17.3735 76.0158 8.87645 50.579 8.87645 50.579" stroke="black" stroke-width="3"/>
<path d="M105.557 94.5332C117.445 92.9778 135.891 94.901 136.975 99.3142C138.058 103.727 104.211 120.269 81 128" stroke="black" stroke-width="3"/>
<circle cx="7.5" cy="45.5" r="6.5" fill="white" stroke="black" stroke-width="2"/>
<path d="M79.0141 125.974C81.2958 123.782 87 125.974 87 125.974V134.376C87 134.376 84.338 138.03 82.0563 134.376C79.7747 130.723 82.0563 130.723 82.0563 130.723H79.0141C79.0141 130.723 76.7324 128.166 79.0141 125.974Z" fill="white" stroke="black" stroke-width="2"/>
<path d="M83 173C87.3603 190.96 89.2255 202.067 83 239" stroke="black" stroke-width="3"/>
<path d="M95 169C99.3603 186.96 101.225 198.067 95 235" stroke="black" stroke-width="3"/>
<path d="M44.2227 49.3449C39.3871 44.9499 33.6994 41.2842 42.2494 32.2697C48.12 38.7893 49.0865 42.5203 44.3325 49.1784C44.2957 49.2341 44.2591 49.2896 44.2227 49.3449C44.5424 49.6355 44.8584 49.9293 45.1663 50.228C50.1099 55.0241 52.416 61.7225 46.8422 70.1436C46.9348 70.2204 47.0284 70.2974 47.123 70.3747C53.1056 84.7953 49.9916 86.6398 45.1764 90.4026C51.2984 97.3681 51.5312 101.7 39.9054 110.709C36.7388 101.716 34.0679 96.4638 44.9173 90.6057C45.0042 90.5373 45.0905 90.4697 45.1764 90.4026C44.98 90.1792 44.7776 89.9531 44.5694 89.7241C37.7912 82.2692 40.4241 79.372 46.4693 70.6926C46.5974 70.5088 46.7216 70.3258 46.8422 70.1436C38.3011 63.0641 38.2965 58.3621 44.2227 49.3449Z" fill="black"/>
<path d="M42.7358 31.7667C32.8896 41.7587 40.1158 45.3281 45.1663 50.228C50.2169 55.1279 52.5146 62.0133 46.4693 70.6926C40.4241 79.372 37.7912 82.2692 44.5694 89.724C51.3475 97.1789 51.9176 101.509 39.4907 111.029M42.0821 32.0846C48.1012 38.7193 49.1313 42.4575 44.3325 49.1784C38.2317 58.4029 38.2483 63.1218 47.123 70.3747C53.2122 85.0524 49.8777 86.7016 44.9173 90.6057C34.0552 96.4707 36.7451 101.728 39.9165 110.741" stroke="black" stroke-width="2"/>
<path d="M155.545 56.2424C153.724 63.6807 136.449 62.2974 137.461 52.7905C143.848 50.6421 147.827 51.2184 155.545 56.2424C155.648 55.8192 155.702 55.3674 155.699 54.887C155.649 45.8592 163.224 41.1698 174.227 39.3816C170.891 50.2398 169.31 56.9933 155.605 56.2816C155.585 56.2685 155.565 56.2555 155.545 56.2424Z" fill="black"/>
<path d="M125.388 34.7829C136.46 36.3001 141.194 39.6701 137.786 51.1921C134.378 62.7141 155.752 64.2644 155.699 54.887C155.647 45.5096 163.823 40.8132 175.52 39.1869C187.218 37.5605 184.232 29.6155 173.218 18M125 33.613C125.942 46.931 128.932 50.6753 137.23 52.869C143.77 50.6232 147.755 51.1609 155.605 56.2816C169.649 57.0109 170.962 49.9007 174.478 38.5673C170.431 31.3243 170.432 26.8254 173.298 18.2469" stroke="black" stroke-width="2"/>
<path d="M136.568 53C128.199 51.2933 126.418 46.3507 125 35.1277L125.723 34.7553C139.566 37.118 139.487 42.329 136.568 53Z" fill="black"/>
<path d="M172.716 18C170.343 25.6834 169.242 30.027 174.162 38.8511H175.608C186.244 37.0804 182.444 30.7996 172.716 18Z" fill="black"/>
<path d="M136.568 53C128.199 51.2933 126.418 46.3507 125 35.1277L125.723 34.7553C139.566 37.118 139.487 42.329 136.568 53Z" stroke="black"/>
<path d="M172.716 18C170.343 25.6834 169.242 30.027 174.162 38.8511H175.608C186.244 37.0804 182.444 30.7996 172.716 18Z" stroke="black"/>
<path d="M79 53C80.8013 62.5187 88.2715 64.2648 91 54.2954" stroke="black"/>
</svg>
